<svg viewBox="0 0 900 950" xmlns="http://www.w3.org/2000/svg">
  <!-- Accurate China map from DataV GeoJSON -->
  <g fill="#e8edeb" stroke="#9bb0a5" stroke-width="0.8" stroke-linejoin="round">
    <path d="M633.6,258.8 L635.9,257.4 L628.1,256.5 L623.5,250.2 L619.1,252.6 L620.9,255.3 L610.8,259.5 L613.8,264.5 L606.5,268.7 L606.8,275.5 L620.5,279.2 L625.6,276.5 L627.8,273.2 L625.4,268.6 L633.6,266.8 L631.6,260.2 L633.6,258.8 Z" data-name="北京市" />
    <path d="M639.5,280 L641.9,276.9 L637.9,276.9 L635.8,271 L639.7,268.2 L634.5,264.8 L631.3,268 L631.1,275.6 L625.9,276.1 L627.3,285.2 L624.9,291.6 L632.2,295.1 L639,292.9 L637.8,290.2 L640.7,289.8 L643.8,283 L636,280.8 L639.5,280 Z M640.1,280.5 L640.1,280.5 Z" data-name="天津市" />
    <path d="M635.2,257.6 L631.8,262.6 L639.7,268.2 L635.9,270.2 L637.7,276.4 L641.9,276.9 L640.2,280.8 L649.9,288.8 L651.1,284.8 L661,280.7 L664.9,271.2 L669.6,269.9 L665.1,259.4 L654.9,254.5 L660.6,245.6 L647.8,245.1 L644.8,238.1 L647.6,236.1 L647.1,232.3 L644.5,232.7 L640,222.3 L627.5,226.1 L625.7,233.7 L618.7,233.4 L615.7,237.3 L611.9,234.4 L605.4,240.5 L598,240.5 L597.1,230.7 L588.6,237.1 L589,242.1 L584.8,242.5 L585.9,247.1 L583.1,249.5 L590.2,262.5 L593.3,263 L584.4,269 L591.4,271.6 L593.8,276.9 L590.7,285.8 L584.3,286 L583.4,291.5 L579.5,295.1 L579.2,300.3 L583.3,302.1 L587.7,310.9 L582.5,320.4 L582.5,325.7 L578.1,328.3 L579.8,332.8 L594.1,338.9 L605.2,339.2 L606.8,336.6 L603.9,332.1 L613.9,317 L617.7,316.6 L619.1,312.6 L620.5,314.6 L625.8,307.8 L634.8,307.7 L639.6,302.7 L642.3,298.4 L637.7,293.9 L632.2,295.1 L624.9,291.6 L627.3,285.2 L625.9,276.1 L620.5,279.2 L617.1,276.6 L610.8,277.9 L606.3,273.7 L608.1,272.5 L606.5,268.7 L613.8,264.5 L610.8,259.5 L620.8,255.5 L619.1,252.6 L623.1,250.3 L628.1,256.5 L635.2,257.6 Z M631.6,267.8 L625.4,268.6 L627,274.8 L631.1,275.6 L631.6,267.8 Z M639.8,280.4 L636,280.8 L639.8,280.4 Z" data-name="河北省" />
    <path d="M534,366.1 L551,361.8 L558,358 L558,353.9 L568.2,355.2 L580.4,347.6 L581.9,334.5 L578.1,328.3 L582.5,325.7 L582.5,320.4 L587.7,310.9 L583.3,302.1 L579.2,300.3 L579.5,295.1 L583.4,291.5 L584.3,286 L590.7,285.8 L593.8,276.9 L591.4,271.6 L584.4,269 L593.3,263 L590.2,262.5 L587.6,256 L586.6,259.7 L579.4,263 L571.9,262.6 L567.8,266.2 L561.6,264.6 L556.3,276 L550,275.3 L544.9,279.9 L546.4,281.8 L541.1,297 L535.8,301.7 L539.9,313.1 L534,322.7 L537.3,347.6 L531.9,361.1 L534,366.1 Z" data-name="山西省" />
    <path d="M345.3,219.1 L355,239.5 L351.8,243.4 L361.9,252.7 L362.1,259 L366.7,255.4 L368.6,258.3 L373.9,253.8 L387.3,253.5 L388.1,264.2 L377.7,271.3 L397.7,279.9 L399.6,288.1 L403.3,286.8 L404.7,291.2 L411.1,293.3 L415.4,289.1 L412.9,285.2 L420.8,282.6 L428.7,285.4 L433.5,281.2 L444.1,279.6 L445.7,287.4 L434.5,297.9 L436.2,302.3 L433.7,304.5 L445.5,315.8 L468,308.7 L471,288.8 L480,280.4 L482.6,280.5 L485.3,286.7 L478.3,299.4 L488.4,302.4 L500.4,311.4 L511.1,310.8 L511.4,304.3 L515.3,304.7 L513.4,301.4 L515.1,297.3 L527.5,285.3 L527.2,282.3 L531.7,282.1 L530.8,279 L537.5,282.4 L544.8,276.6 L544.1,280.4 L547.7,279.6 L550,275.3 L556.3,276 L561.6,264.6 L567.8,266.2 L586.6,259.7 L583.9,243.9 L589,242.1 L588.6,237.1 L593.7,231 L598,231.6 L598,240.5 L602.9,241 L611.9,234.4 L615.7,237.3 L618.7,233.4 L625.7,233.7 L627.5,226.1 L639.7,222.2 L644.5,232.7 L647.1,232.3 L647.6,236.1 L644.8,238.1 L648.3,245.7 L660,246.2 L663.1,241.1 L660.5,229.7 L664.3,226.4 L669.2,229.5 L672.8,238.8 L678.1,231.4 L695.7,225.5 L699.1,221 L705.7,221.1 L706.2,218.2 L712.1,220.6 L722.5,215.3 L724.3,208.7 L718.8,206.6 L722,204 L719.8,194.5 L716.1,188.3 L703.9,192.8 L700.7,181 L703.4,174.5 L699.6,167 L694.9,166 L697.8,161.1 L710.6,166.8 L711.3,160.2 L716.8,157.1 L714.3,151.2 L722.9,149.2 L722.9,145.5 L718.6,143.6 L719.6,146.5 L714.3,148.4 L712.2,142.3 L706,137.3 L732.3,116 L734.5,124.1 L736.1,123 L736,115.7 L740.1,105.6 L746,104.3 L746.6,87.9 L754.7,79.7 L753.7,76.3 L758,71 L744.7,60 L740.9,65 L734.4,66.9 L714.3,66.2 L708.9,52.6 L711.2,49.3 L702.4,44.6 L695.9,48.1 L688.3,43.1 L696.9,35.6 L695.4,31.6 L683.2,31.1 L671.9,40 L672.5,43.3 L681.9,44.2 L680.4,48 L682.7,51 L672.7,59.6 L658.9,82.8 L662.3,83.3 L662.1,86.8 L640.1,98.3 L624.5,92.5 L611.4,116.4 L611.8,121 L607.6,122.9 L613.4,131.3 L625.6,127.5 L634.1,132.1 L640.2,125.4 L651,125.8 L667.4,140.1 L670.2,149.5 L662.5,150.7 L655.9,147.6 L634.6,151.1 L633.9,155.1 L622.6,156.3 L616.8,167.1 L605.2,172.4 L593.6,172.5 L580.4,184.1 L555.8,178.5 L548.8,191 L556.4,202.9 L543.1,209.5 L534.8,219.3 L522.1,224.9 L492.4,225.1 L457.3,240.8 L450.3,239.4 L450.4,235.6 L434.6,235.4 L398,221.3 L378.7,223.1 L345.3,219.1 Z" data-name="内蒙古自治区" />
    <path d="M721.9,273 L730.7,273.8 L739.1,262.6 L752.6,255.4 L751.3,252.5 L754.2,248.3 L747.1,236.5 L749.9,230.9 L747.2,230.7 L741.1,219.2 L741.2,213 L735.2,218.1 L732.5,211.2 L725.7,206.6 L722.5,215.3 L718,215.5 L717.5,218.4 L699.1,221 L695.7,225.5 L678.1,231.4 L672.8,238.8 L669.2,229.5 L664.3,226.4 L660.5,229.7 L662.9,242.8 L654.9,254.5 L665.1,259.4 L669.3,269.4 L678.5,265.6 L687.5,253.6 L697.4,253.2 L703.5,259.9 L689,277.2 L689.6,280.5 L696.1,280.6 L694.7,285.8 L687,288.6 L687.7,292.2 L721.9,273 Z M709.1,282 L707.3,282 L709.1,282 Z M704.6,284.1 L704.6,284.1 Z M709.9,283 L709.9,283 Z M710.6,286.6 L710.6,286.6 Z M714.6,277.4 L714.6,277.4 Z M682.7,260.7 L682.7,260.7 Z M716.6,286.7 L716.6,286.7 Z" data-name="辽宁省" />
    <path d="M808.6,225.9 L813.6,215.2 L823.5,225.7 L820.1,220.2 L830.7,216.5 L833.1,206.4 L826.6,207.5 L820.2,203.7 L819.5,196.6 L815.4,200.4 L813.6,196.9 L803.6,200.7 L803.3,204.7 L798.3,205.7 L791,188.2 L786.4,191.2 L787,195 L782.6,196.1 L778.4,190.1 L779.4,187.1 L772.1,187.3 L770.9,177.1 L757.1,176.6 L752.7,170.3 L734.3,171.6 L728.6,165.7 L727.1,156.1 L711.3,160.2 L710.6,166.8 L697.8,161.1 L694.9,166 L699.6,167 L703.4,174.5 L700.7,181 L703.9,192.8 L716.1,188.3 L721.7,202.7 L718.6,205.5 L720.3,208 L726.5,207.1 L732.5,211.2 L735.2,218.1 L741.2,213 L741.1,219.2 L747.2,230.7 L749.9,230.9 L747,234.1 L747.4,239.1 L754.2,248.3 L751.2,253.2 L757.7,252.6 L764.8,244.7 L765.8,239.3 L770.4,236.7 L775.1,242.5 L787.4,244.7 L790.3,240.9 L786.2,233.3 L799.3,232.9 L805.3,225.1 L808.6,225.9 Z" data-name="吉林省" />
    <path d="M722.4,157.5 L728,156.4 L728.6,165.7 L734.3,171.6 L752.7,170.3 L757.1,176.6 L770.9,177.1 L772.1,187.3 L779.4,187.1 L778.4,190.1 L782.6,196.1 L787,195 L786.4,191.2 L791,188.2 L798.3,205.7 L803.3,204.7 L803.6,200.7 L813.6,196.9 L815.4,200.4 L819.5,196.6 L820.2,203.7 L830.6,207.7 L832.9,206.4 L833,196.6 L828.1,182.2 L835.7,179.9 L841.3,173.3 L856.5,179.1 L859.1,177.2 L859.2,171.8 L870.1,157 L874,137.7 L882.6,130.7 L879.3,126 L881.1,121 L887.1,117.8 L859,123.2 L852.3,126.6 L850.8,130.7 L829,131.1 L823.8,123.8 L826.4,120.3 L822,114.7 L824,109.8 L817.7,110.1 L807.4,100.1 L783.1,97 L779,92.9 L780,85.4 L776.2,83.6 L775.6,76.2 L770.3,70.7 L771.2,66.1 L768.9,66.8 L770.1,64.5 L763.8,54.8 L765.1,51.4 L756.7,42.5 L758.8,40.1 L752.6,38.4 L751.6,34.4 L741,34.1 L721.7,25.9 L695.7,28.8 L692.8,29.8 L697.4,34.8 L688.3,43.1 L697.7,48.8 L702.4,44.6 L711.2,49.3 L708.9,52.6 L714.3,66.2 L734.4,66.9 L740.9,65 L744.7,60 L758,71 L753.7,76.3 L754.7,79.7 L746.6,87.9 L746,104.3 L740.1,105.6 L736,115.7 L736.1,123 L734.5,124.1 L732.3,116 L706,137.3 L714.7,148.6 L719.6,146.5 L718.6,143.6 L722.9,145.5 L722.9,149.2 L714.3,151.2 L716.8,157.1 L722.4,157.5 Z" data-name="黑龙江省" />
    <path d="M684.3,430.5 L689.6,436.6 L699.9,433.2 L696,425.3 L690.6,421.6 L684.3,430.5 Z M699.6,419.7 L690.3,415.2 L687.4,417.1 L697.4,422.9 L699.6,419.7 Z M697.1,424.8 L693,422.1 L697.1,424.8 Z M697.2,424.4 L701.8,425.3 L697.2,424.4 Z M699.2,426.9 L699.2,426.9 Z" data-name="上海市" />
    <path d="M633,366.8 L630.9,369.1 L625.6,359.4 L619.6,363.5 L630.4,375.1 L637.6,376.4 L639.3,382.1 L645.2,381.7 L642,390.8 L646,391.4 L648.2,399.9 L653.7,399.6 L655,395.6 L659.8,398 L658.4,404.7 L651,402.3 L652.9,406.9 L648.5,411.5 L649.7,416.8 L655.1,419.6 L654.2,426.7 L670.3,427.7 L678.6,435.1 L691,420.8 L688.6,415.8 L699.6,419.7 L691.8,405.1 L685.2,401.8 L675.9,371.4 L660.5,362.6 L661.2,356.9 L655.2,358.5 L654.1,363.9 L649.4,365.1 L648.3,369.5 L645.4,370.1 L642.2,364.7 L637,368.6 L633,366.8 Z" data-name="江苏省" />
    <path d="M649.1,479.4 L654.3,480.3 L655.8,494.3 L661,495 L665.8,490.5 L668.1,497 L675.2,494.8 L679.2,499.8 L682.5,488.7 L688.5,487.8 L685.6,485.5 L686.6,482.9 L694.7,480.1 L693.4,472.8 L696.8,469.1 L694.4,463.6 L699.5,465.7 L700,456.2 L697.6,454.9 L702,450.5 L696,448.8 L687,439.5 L689.6,435.7 L685.6,433.7 L685.6,430.5 L678.6,435.1 L666.8,427.8 L663.5,437 L660.6,437.8 L662.9,442 L655.4,443.1 L653.5,453.4 L643.5,462.9 L649,472.4 L649.1,479.4 Z M702.3,448.9 L704.9,448.4 L699.1,445.8 L702.3,448.9 Z M703.1,445.4 L703.1,445.4 Z M706.1,435.5 L706.1,435.5 Z M702.3,442.8 L702.3,442.8 Z M704.5,444.2 L704.5,444.2 Z M700.4,463.5 L700.4,463.5 Z M705.3,450.6 L705.3,450.6 Z M706.1,441.4 L704,440.3 L706.1,441.4 Z M703.8,451.5 L703.8,451.5 Z M699.2,434.8 L701.9,438 L699.2,434.8 Z M702.6,455 L701.2,452.6 L702.6,455 Z M706.6,449.7 L706.6,449.7 Z M697.9,449.1 L697.8,446.9 L697.9,449.1 Z M699.4,443.6 L699.4,443.6 Z M702.8,449.3 L702.8,449.3 Z M704.1,453.7 L704.1,453.7 Z M710.9,446.2 L710.9,446.2 Z M704,451.2 L704,451.2 Z M687.1,485.7 L687.1,485.7 Z M706.5,449.5 L706.5,449.5 Z" data-name="浙江省" />
    <path d="M622.9,376.7 L623.3,378.9 L616.5,382.1 L613.7,376.8 L609.4,375.8 L609.1,384.4 L604.9,385.8 L604.1,392.5 L598.6,392.5 L602.8,397.5 L602.9,402.2 L608.9,405.5 L613,402.6 L613.1,416.1 L607.1,418.7 L605.3,424.5 L615.1,430.5 L610.9,436.4 L616.2,452 L623.8,447.3 L627.1,449.6 L624.6,456.5 L631.7,450 L636.3,456.1 L647.4,459.1 L655.6,449.8 L655.4,443.1 L662.9,442 L660.6,437.8 L666.2,430.4 L662.1,425.4 L654.2,426.7 L655.1,419.6 L648.1,414.1 L652.9,406.9 L651,402.3 L658.4,404.7 L659.8,398 L655,395.6 L653.7,399.6 L648.2,399.9 L646,391.4 L642,390.8 L645.2,381.7 L639.3,382.1 L637.6,376.4 L631.3,375.7 L620.4,365.2 L617.1,366.6 L617.3,370.1 L622.6,372.1 L622.9,376.7 Z M624.3,454 L624.3,454 Z M607.3,404.4 L607.3,404.4 Z" data-name="安徽省" />
    <path d="M657.2,539 L655.9,533.9 L658.8,538.2 L659,534.5 L662.6,534 L660.3,530 L665.7,532.5 L669.5,530.3 L668.4,526.5 L666.8,529.9 L664,527.1 L667.5,520.3 L665.8,517.5 L670.8,514.2 L665.4,509.3 L670.6,506.4 L669,511.1 L673.4,509.1 L672.2,505 L677.6,497.9 L675.2,494.8 L668.1,497 L665.8,490.5 L661,495 L655.8,494.3 L653.1,479 L639.1,488.2 L636,484.9 L632.6,486.9 L628.6,491.3 L631,497.4 L629.3,500.8 L622.1,505.4 L622.9,513.8 L616.2,523 L612.4,539.2 L619.9,540.7 L621.9,545.6 L625.9,544.7 L628.3,559 L632.9,564.5 L645.1,551.6 L644.6,546.2 L651.6,547 L654.1,542.5 L652.1,541.3 L657.2,539 Z M648.7,547.2 L646.9,549 L648.7,547.2 Z M663.9,534.9 L663.9,534.9 Z M645.8,547.4 L643.8,548.1 L645.8,547.4 Z M676.6,504.1 L676.6,504.1 Z M666.7,509.2 L666.7,509.2 Z" data-name="福建省" />
    <path d="M645.6,459.6 L642.9,456.3 L636.3,456.1 L631.7,450 L624.6,456.5 L627.1,449.6 L623.8,447.3 L618.3,452.5 L607.3,451.6 L604.1,455.6 L601.6,454.4 L602.2,457.5 L590.1,460.1 L585,465 L589.3,478.9 L582.2,485.8 L579.7,492.8 L580.2,496.4 L583.9,495.7 L583.7,508.6 L587.3,510.3 L585.2,517.8 L589.1,517.8 L585.8,520.2 L584.9,530.5 L586.3,534 L593.4,531 L596.3,533.5 L588.4,544.6 L591.8,547.7 L605.9,542.2 L612.1,546.3 L612.2,534.7 L623.4,511.9 L622.1,505.4 L631,497.4 L628.6,491.3 L636,484.9 L639.1,488.2 L647.9,483 L649.7,478.7 L648.1,470 L643.4,464.8 L645.6,459.6 Z" data-name="江西省" />
    <path d="M619.6,365.4 L620.6,360.8 L625.6,359.4 L630.9,369.1 L642.2,364.7 L645.4,370.1 L648.3,369.5 L649.4,365.1 L654.1,363.9 L655.2,358.5 L662.5,357.6 L666.6,348.4 L675.8,341.5 L674,337.4 L676.6,337.5 L675.5,340.2 L681.6,338.8 L681.3,334 L685.2,332.7 L683.5,329.9 L695,328 L700.1,323.8 L707.6,324.8 L706.9,320.8 L710.2,316 L702.1,313.1 L693.9,315.2 L681.9,308.1 L674.7,310.6 L667.7,320.7 L661.8,321 L656.3,313.6 L660.9,311.2 L661.3,307.5 L655.8,302.6 L650.7,304.1 L641.4,299.7 L634.8,307.7 L625.8,307.8 L620.5,314.6 L619.1,312.6 L617.7,316.6 L613.9,317 L609.8,326.5 L605.1,329.8 L606.9,338.8 L604.8,344.7 L615.7,339 L597.4,358 L603.1,359.7 L607.9,366.7 L619.6,365.4 Z M692.7,312.7 L692.7,312.7 Z" data-name="山东省" />
    <path d="M567.4,406.4 L574.5,405.1 L577.6,408 L581.9,405.4 L583.6,415.6 L594.1,417.1 L593.7,420.7 L597.6,422.5 L602.3,419.9 L604.3,423.9 L607.1,418.7 L612.7,416.8 L613,402.6 L608.9,405.5 L602.9,402.2 L602.8,397.5 L598.6,392.5 L604.3,392.2 L604.9,385.8 L609.1,384.4 L608.7,376.4 L613.7,376.8 L618,381.8 L623.5,378.8 L622.6,372.1 L619.6,372.1 L615.7,366 L607.4,366.5 L603.1,359.7 L597.4,358 L615.7,339 L605.2,345 L606.6,338 L598.8,340.1 L581.9,334.5 L580.4,347.6 L573.2,353 L558,353.9 L558,358 L551,361.8 L534,366.1 L534.9,372.6 L537.7,374 L537,378.9 L542.9,384.5 L542.6,390.3 L546.5,397 L559.4,406 L567.4,406.4 Z" data-name="河南省" />
    <path d="M543.5,391.8 L523.1,389.9 L520.6,392.1 L530.8,399.1 L528.8,403 L523.3,402.1 L521.4,407.4 L522.7,417.7 L530.3,423.4 L531.4,427.9 L529.7,434.4 L527.1,432.6 L519.4,440 L514.9,437 L506.1,439.9 L508.3,444.1 L505.3,451.6 L507.2,454 L509.4,451.3 L516.3,463.6 L518.2,464.5 L520.5,457.1 L525.4,453.1 L536.6,453.9 L535.7,447.7 L540.7,446.4 L554.4,450.5 L561.3,457.4 L570,452.5 L570.7,458.2 L573.5,458.6 L579.6,451.4 L582.2,458.7 L580.1,462.2 L584.3,466.1 L590.1,460.1 L602.2,457.5 L601.6,454.4 L604.1,455.6 L607.3,451.6 L616.2,452 L610.9,436.4 L615.3,431.5 L612.4,428.1 L608.4,428.2 L602.3,419.9 L597.6,422.5 L593.7,420.7 L594.1,417.1 L585.6,417.3 L582.3,413 L581.9,405.4 L577.6,408 L574.5,405.1 L561.8,407 L551.1,402.2 L543.5,391.8 Z" data-name="湖北省" />
    <path d="M557.5,543.1 L559.8,535.2 L566.6,536.1 L569.6,540.3 L571.9,534.9 L569.4,532.4 L575,529.2 L579.8,533 L584.9,530.5 L585.8,520.2 L589.1,517.8 L585.2,517.8 L587.3,510.3 L583.7,508.6 L583.9,495.7 L580.2,496.4 L579.7,492.8 L582.2,485.8 L589.3,478.9 L587.9,469.7 L581.4,465.3 L582,456.3 L579.6,451.4 L572.5,458.8 L570.2,455.8 L571.8,452.8 L561.3,457.4 L553.7,450.2 L535.7,447.7 L536.6,453.9 L526.7,452.8 L520.5,457.1 L517,473.2 L520.9,492.4 L511.3,501.1 L521,500.1 L522.8,506.9 L518.3,508 L520.1,510.9 L518.2,514.6 L521,514.9 L520.8,519.5 L524.1,522.7 L528.1,517 L532.2,521.2 L537.3,514.5 L546.8,515.6 L545.6,521.3 L549.8,523 L542.4,538.9 L546.8,535.7 L549.5,538.1 L549.3,544.5 L557.5,543.1 Z" data-name="湖南省" />
    <path d="M579.4,588.5 L581.1,579.3 L584.2,584.4 L591.2,581.5 L593,584.4 L595.9,578.2 L598.4,582.6 L602.7,577.6 L608.2,580.6 L609.3,576.8 L611.8,579.1 L621.5,575.6 L627,565.4 L631.3,564.3 L625.9,544.7 L621.9,545.6 L619.9,540.7 L612.8,539.6 L612.1,546.3 L605.9,542.2 L591.8,547.7 L588.1,544 L596.2,536.3 L593.4,531 L586.3,534 L585.8,530.5 L579.8,533 L574.7,529.3 L569.4,532.4 L571.9,534.9 L569.6,540.3 L566.6,536.1 L559.8,535.2 L559.5,541 L556.3,544.1 L556.3,556.6 L548.6,565.9 L548,576.3 L539.3,582.3 L538.3,589.2 L533.5,588.8 L534.2,594.2 L528.6,594.4 L524.9,599.2 L527.2,602.5 L523.7,611.5 L527.3,624 L536.3,620.7 L534.2,613.6 L531.2,612.2 L534.6,606.8 L556.8,599.4 L559.1,596 L570.4,595.2 L572.7,590 L575.2,594.6 L579.4,588.5 Z M628.9,566.5 L630.6,567.2 L628.9,566.5 Z M569.3,597 L568.2,600.1 L569.3,597 Z M564.7,599.8 L566.6,597.4 L564.7,599.8 Z M534.8,607.2 L537.6,606.5 L534.8,607.2 Z M536,608.8 L531.4,611.4 L536.2,611.6 L536,608.8 Z M573.5,595.3 L573.5,595.3 Z M625.3,614.4 L626.6,617.6 L625.3,614.4 Z M537.8,611.4 L537.8,611.4 Z M613.5,608.5 L615.2,609.5 L613.5,608.5 Z M613.2,610.6 L613.2,610.6 Z" data-name="广东省" />
    <path d="M521.2,520 L519.1,525.3 L512.8,525.6 L515.4,525.5 L514.6,529.3 L509.8,527.3 L508.9,532.9 L505,528.8 L501.6,534.7 L496.6,536.2 L495.1,532.8 L492.5,534.6 L488.6,527.5 L485.4,534.3 L473.5,539.3 L471.8,545 L460.2,538.5 L453.3,545.3 L450.4,543.3 L450.3,546.8 L453,550.6 L453.8,548.2 L458.7,549 L460.9,555.3 L472.1,554.8 L473.5,564.1 L466.3,567.1 L465.4,573.2 L483.4,577.9 L479.4,584.1 L481.4,593 L485.7,593.2 L491.3,599.6 L503.3,601.4 L508.9,598.1 L516.3,600.1 L516.3,603.3 L525.5,602.1 L527.8,595.1 L534.2,594.2 L533.5,588.8 L538.3,589.2 L539.3,582.3 L548,576.3 L548.6,565.9 L555.9,557.4 L555.4,552.3 L558,549.5 L557.5,543.1 L549,544.1 L548.2,536.2 L542.4,538.9 L549.8,523 L545.6,521.3 L546.8,515.6 L537.3,514.5 L532.2,521.2 L528.1,517 L525.4,522.9 L521.2,520 Z M515.5,610 L515.5,610 Z" data-name="广西壮族自治区" />
    <path d="M530.1,627.7 L518.6,629.7 L509.2,639.9 L509.2,655.4 L522.6,661.5 L535.7,652.4 L543.5,632.5 L538.4,625.3 L530.1,627.7 Z M560.1,917.6 L560.1,917.6 Z M575.2,841.3 L576.9,838.4 L575.2,841.3 Z M557.1,918.1 L557.1,918.1 Z M549.5,680.7 L549.5,680.7 Z M638.7,714.7 L640.4,715.9 L638.7,714.7 Z M553.3,696.5 L553.3,696.5 Z M552.1,695.4 L551,697.1 L552.1,695.4 Z M584.2,850.6 L591,850.1 L593.4,844.6 L584.2,850.6 Z M585.4,827.9 L585.4,827.9 Z M556.8,694.2 L556.8,694.2 Z M553.4,691.9 L553.4,691.9 Z M560.5,682.1 L560.5,682.1 Z M595.6,801.5 L595.6,801.5 Z M612,812.9 L612,812.9 Z M520.9,855.4 L527.8,852.2 L523.6,851.5 L520.9,855.4 Z M564,700 L565.9,699.3 L564,700 Z M592.4,792.7 L594.1,791.4 L592.4,792.7 Z M563,694.7 L564.8,694.4 L563,694.7 Z M621.3,800.6 L623.5,801.7 L621.3,800.6 Z M607.1,809.5 L607.1,809.5 Z M593,841.4 L594.6,840.9 L593,841.4 Z M602.4,836.7 L604.5,837.2 L602.4,836.7 Z M584.2,843.5 L584.2,843.5 Z M580.5,826.1 L580.5,826.1 Z M595.7,789.7 L597.1,787.9 L595.7,789.7 Z M527.7,846.3 L529.7,844.5 L527.7,846.3 Z M614,819.9 L614,819.9 Z M639.6,793.8 L639.6,793.8 Z M589.2,803.3 L589.2,803.3 Z M535.1,841.5 L537.1,840.8 L535.1,841.5 Z M607.3,834.8 L607.3,834.8 Z M550.6,851.8 L550.6,851.8 Z M556.1,842.3 L556.1,842.3 Z M632.4,795.3 L634.5,795.1 L632.4,795.3 Z M552.4,849.9 L552.4,849.9 Z M594.3,828.4 L594.3,828.4 Z M624.2,693.8 L624.2,693.8 Z M571.3,637.7 L571.3,637.7 Z M583.3,643.3 L583.3,643.3 Z M566.4,895.5 L566.4,895.5 Z M552,845.3 L552,845.3 Z M565.5,887.4 L565.5,887.4 Z M564.6,885.7 L564.6,885.7 Z M605.2,736.8 L605.2,736.8 Z M565.9,890.8 L565.9,890.8 Z" data-name="海南省" />
    <path d="M476.8,475.2 L478.2,469.7 L481.5,476.5 L485.9,468.8 L491.2,469.4 L491.5,463.4 L496.4,463.1 L498.1,467.4 L504.4,465.2 L504.7,472.4 L509.1,473.5 L508.3,478.5 L510.1,475.6 L510.5,480.5 L515.5,481.3 L518.9,474.2 L517,473.2 L518.9,465.9 L515.2,459.4 L513.1,460.8 L509.4,451.3 L507.2,454 L505.3,451.6 L508.3,444.1 L506.1,439.9 L514.9,437 L519.4,440 L527.1,432.6 L529.7,434.4 L530.3,423.4 L505.7,409.3 L503.7,413.4 L507.8,418.8 L502.7,421.9 L497.9,434.5 L492.6,433.7 L493.1,437.1 L486.5,448 L468.5,441 L464.8,446 L467.7,450.7 L461.5,457.1 L463.1,461.1 L467.1,461.5 L468.5,467.8 L474.4,468.4 L476.8,475.2 Z M515.8,438.2 L515.8,438.2 Z" data-name="重庆市" />
    <path d="M402.4,499 L401.9,502.1 L407.3,506.7 L405.7,509.9 L409,516.5 L415.8,519.3 L422.4,514 L424.4,516.7 L428.5,513.8 L426.9,497.2 L435.5,488.3 L436.8,480.5 L441.1,478.9 L440.7,472.6 L448.9,473.4 L446.6,475 L449.5,480.3 L447.2,483.7 L451,487.5 L458,482.9 L461,484.7 L461.5,489.9 L475.8,488 L474.4,482.2 L466.3,478.8 L466.1,475.3 L471,471 L476.8,476 L474.4,468.4 L468.5,467.8 L467.1,461.5 L461.9,458.7 L467.7,450.7 L464.8,446 L468.9,440.9 L486.5,447.9 L493.1,437.1 L492.6,433.7 L497.9,434.5 L502.7,421.9 L507.8,418.8 L503.7,413.4 L507.2,408.4 L499.7,410.2 L491.9,403.3 L488.7,405.1 L486.7,400.1 L477.4,401.8 L472.1,397.3 L465.7,400.3 L463.8,396.1 L459.8,401.7 L452,400.9 L447.1,397.8 L448.9,389 L445.4,384.1 L430.9,380.4 L431.1,375.5 L427.3,371.3 L416.2,377.5 L421.1,385.1 L417.2,390.9 L411.8,392.7 L412.1,384.1 L409.1,393.1 L401.8,390.9 L402.2,400.9 L395.6,400.7 L394.9,403.4 L391.4,399.2 L387.3,401.3 L384,394.1 L381.7,399.7 L375.3,397.1 L368,389.9 L362.9,375.4 L352.4,374.6 L348.2,380.2 L353.6,387.5 L347.8,396.7 L349.8,401.1 L360.3,406.7 L363.1,415.8 L369.8,424 L365.7,427.3 L370.8,435 L373.8,477 L376.8,481.4 L377.2,474.8 L381.7,469.4 L388.2,478.8 L386,482 L390.2,489.6 L395.4,486 L402.4,499 Z M485.4,447.1 L485.4,447.1 Z" data-name="四川省" />
    <path d="M518.2,475.7 L515.5,481.3 L511,480.8 L510.1,475.6 L508.3,478.5 L509.1,473.5 L504.7,472.4 L504.4,465.2 L498.1,467.4 L496.4,463.1 L492,463 L491.2,469.4 L485.9,468.8 L481.5,476.5 L478.2,469.7 L476.8,476 L471,471 L466.1,475.3 L469.9,482.5 L475.2,483.4 L474.9,488.8 L462.2,489.1 L459.8,496 L455.3,497.3 L448,494.2 L445.3,497.8 L441.9,494.6 L437.2,501.5 L439.6,503.4 L439.5,510 L443.8,511.3 L448.9,507.8 L452.6,513.7 L447.3,526.8 L454.7,534.2 L450.4,543.3 L453.3,545.3 L460.2,538.5 L471.8,545 L473.5,539.3 L485.4,534.3 L488.6,527.5 L492.5,534.6 L495.1,532.8 L497.7,536.4 L504.4,529 L508.9,532.9 L509.8,527.3 L514.6,529.3 L515.4,525.5 L512.8,525.6 L519.1,525.3 L521.6,518.2 L518.2,514.6 L520.1,510.9 L518.3,508 L521.2,506.9 L521.7,501.5 L511.3,501.1 L520.9,492.4 L518.2,475.7 Z M521.1,505.6 L521.1,505.6 Z" data-name="贵州省" />
    <path d="M461.5,489.9 L461,484.7 L458,482.9 L450.1,486.8 L446.5,477.4 L448.9,473.4 L440.7,472.6 L441.1,478.9 L436.8,480.5 L435.5,488.3 L426.9,497.2 L428.2,514.4 L424.4,516.7 L422.4,514 L411.9,519.7 L395.4,486 L390.2,489.6 L386,482 L388.2,478.8 L381.7,469.4 L375.8,480.5 L373.1,462.7 L371.2,463 L371,469.7 L366.1,467.4 L367.3,480.5 L362.7,482.6 L361.4,477.7 L359.1,482.1 L361.7,493.2 L363.5,490.6 L367.2,492.6 L368.3,509.4 L367.4,518.2 L365.4,518.4 L367.2,523.1 L361.6,528.7 L359.6,527.3 L359.1,531.6 L353.1,537 L354.2,541.2 L350.7,543.1 L350.4,548.5 L353.6,553.5 L350.4,557.7 L369.7,553.7 L366.7,560 L369.7,563.2 L369.9,570.6 L379.5,575.7 L375.9,579.1 L376.9,583.5 L373.7,589.4 L385.3,591.4 L385.6,597.6 L389.1,601.9 L394,602.1 L401.8,596.4 L403.2,606.1 L410.9,607.6 L411.8,599.2 L407.8,588 L409.6,583.8 L418.1,584.8 L421.6,578.4 L429,584.4 L433.2,577.8 L436.1,581.7 L437.7,578 L442.4,583.3 L444.5,577.8 L448.2,579.9 L453.4,577.5 L455.5,571.4 L461.8,567.4 L464.9,571 L466.3,567.1 L473.5,564.1 L474.2,558.6 L471.4,554.2 L460.9,555.3 L458.7,549 L451.1,548.8 L449.9,544.7 L454.7,534.2 L447.3,526.8 L452.4,512.7 L448.9,507.8 L440.3,511 L437.2,501.5 L441.9,494.6 L445.3,497.8 L448,494.2 L451.6,497.1 L459.8,496 L461.5,489.9 Z" data-name="云南省" />
    <path d="M238.7,339.4 L221,332.4 L206.1,333.4 L189.7,338 L180.2,347.3 L172.2,345.5 L159.4,352.5 L144.7,351.8 L142.4,347 L135.3,346.1 L124.1,354.7 L106.2,350.9 L97.2,368.3 L86.3,369.4 L84.7,374.1 L80.9,375.4 L81.2,383.1 L87.9,391.6 L90.1,402.1 L85.3,406.9 L82,400.2 L77.1,403.3 L78.1,410.5 L82.3,413.8 L82.2,424.4 L87.1,430.9 L95.3,431.1 L100.6,437.9 L114.8,444.3 L116.2,448.4 L120.3,441.2 L130.1,442.5 L131.1,447.5 L146.7,456.4 L151.4,463.5 L158.8,461.5 L160.5,468.7 L164,471.4 L169.4,474.4 L173.2,472.5 L173,478.4 L181.7,477.9 L185.7,486.3 L188.4,481.6 L191.6,486.3 L195.7,482.8 L203.3,488 L225.2,483.4 L225.5,494.2 L228.4,498.8 L232,488.3 L239.9,480.3 L257.5,487.2 L263.8,484.6 L265.5,492.9 L272.4,495.5 L273,505.2 L297.4,502.1 L304,492.1 L326.2,479.3 L344.3,489.3 L348.4,486.7 L347.9,480.4 L351,474.9 L359.1,482.1 L361.4,477.7 L362.7,482.6 L367.3,480.5 L366.1,467.4 L371,469.7 L372.4,449.9 L370.8,435 L365.7,427.3 L369.8,424 L363.1,415.8 L360.3,406.7 L348,402.7 L347.3,411.4 L338.9,412.6 L339.7,418.6 L331.3,414.5 L330.8,420 L328.3,416.1 L321.6,417.3 L320.6,410 L315.4,407.8 L317.4,405.7 L308.8,400.7 L302,405 L293.1,404.3 L286,399.6 L275.1,399.9 L264.8,393.1 L248.7,390.2 L237.6,376 L241,371.1 L238.9,365.1 L241,362.4 L236.8,360.9 L235,355 L239.5,350.3 L240,343.8 L234.4,340.7 L238.7,339.4 Z" data-name="西藏自治区" />
    <path d="M534,366.1 L531.9,361.1 L537.3,347.6 L534,322.7 L539.9,313.1 L535.8,301.7 L541.5,295.8 L546.4,281.8 L543.8,280 L544.8,276.6 L538.6,282.3 L530.8,279 L531.7,282.1 L527.2,282.3 L527.5,285.3 L515.1,297.3 L513.4,301.4 L515.3,304.7 L511.4,304.3 L511.1,310.8 L501.9,311.9 L495.5,307.1 L490.2,312.1 L490.1,324.6 L509.3,334.1 L509.8,340.6 L507.1,343.3 L508.8,353.1 L496.4,353.4 L498,359 L493.2,360.6 L479.2,357.5 L479.6,363.1 L475.9,366.5 L481.7,370.3 L477.3,378.6 L479.7,384.5 L471,383.9 L467.3,388 L470.9,391.2 L470.2,395 L464.2,397.1 L465.7,400.3 L472.1,397.3 L477.4,401.8 L486.7,400.1 L489.5,405.6 L491.9,403.3 L499.7,410.2 L506.7,408 L518.3,417.9 L522.7,417.7 L521.4,407.4 L523.3,402.1 L531.5,401.5 L521.6,390.6 L536.3,390.3 L538.6,393.1 L543.2,388.9 L542.9,384.5 L537,378.9 L537.7,374 L534.9,372.6 L534,366.1 Z" data-name="陕西省" />
    <path d="M478.7,345.7 L476.6,354.7 L469.9,351.5 L472.1,350 L462.6,344.7 L464.5,338.4 L459.5,323.2 L452,319.5 L452.6,315.8 L445.5,315.8 L434.4,307.6 L433.8,303.5 L436.2,302.3 L434.5,297.9 L445.7,287.4 L444.1,279.6 L433.5,281.2 L428.7,285.4 L420.8,282.6 L412.9,285.2 L415.4,289.1 L411.1,293.3 L404.7,291.2 L403.3,286.8 L399.6,288.1 L397.7,279.9 L377.7,271.3 L388.1,264.2 L387.3,253.5 L373.9,253.8 L368.6,258.3 L366.7,255.4 L362.1,259 L361.9,252.7 L351.8,243.4 L355,239.5 L345.3,219.1 L330.1,222.5 L329.4,234.5 L318.6,241.1 L316.2,237.4 L307.6,242.2 L300.2,249.2 L296.6,257.3 L284.7,259 L280.6,278 L276.3,282.9 L277.3,286.5 L287.4,284 L288.3,288.5 L305.3,291.4 L308,298.8 L324.3,297.9 L332.3,302.5 L338.1,301 L339.9,294.2 L343.7,294.5 L342.3,283.6 L358.5,291 L361.2,286.7 L365.5,288.4 L368.8,285.6 L387.5,301 L386.1,296 L398.8,301.9 L398.5,304.9 L402.9,307.9 L414.3,310.1 L423.5,321.3 L420.7,323.6 L429.5,337.1 L426.9,339.5 L427.8,344.1 L424.1,345.1 L424.9,350.1 L421.5,348.5 L418.5,351.4 L420.1,355.8 L413.1,361.2 L413.4,366.4 L418,370.5 L413.6,375 L399.3,370 L396.6,373.7 L402.4,383 L412.6,384.5 L412.4,393 L420.9,386.8 L416.2,377.5 L427.3,371.3 L431.1,375.5 L430.9,380.4 L445.4,384.1 L448.9,389 L447.1,397.8 L455.5,402 L461.4,401 L463.1,396.3 L470.2,395 L470.9,391.2 L467.3,388 L471,383.9 L479.7,384.5 L477.3,378.6 L481.7,370.3 L475.9,366.5 L479.6,363.1 L479.2,357.5 L489.3,361.1 L497.7,359.4 L496.4,353.4 L508.3,353.7 L507.1,343.3 L510.2,338.5 L508.8,333.2 L490.1,324.6 L488.3,320.5 L480.2,320.7 L480.6,328.1 L476.7,331.2 L478.6,336.2 L485.1,339.4 L484.2,345.3 L478.7,345.7 Z M472.1,350 L472.1,350 Z" data-name="甘肃省" />
    <path d="M426.1,334.5 L422.9,328.3 L424.6,327.2 L420.7,323.6 L422.9,319.9 L414.3,310.1 L402.9,307.9 L398.5,304.9 L398.8,301.9 L386.1,296 L387.5,301 L368.8,285.6 L365.5,288.4 L361.2,286.7 L358.5,291 L342.3,283.6 L343.7,294.5 L339.9,294.2 L338.1,301 L332.3,302.5 L324.3,297.9 L308,298.8 L305.3,291.4 L288.3,288.5 L287.4,284 L244.7,296.3 L246.9,300.9 L250.4,299.4 L250.3,310 L258.2,314.5 L261.1,320.1 L261.5,322.9 L255.1,324.6 L252.9,329.2 L257.7,331.5 L258.9,339 L255,340.7 L242.9,336 L242,339.8 L234.4,340.7 L240,343.8 L239.5,350.3 L235,355 L236.8,360.9 L241,362.4 L238.9,365.1 L241,371.1 L237.6,376 L248,389.9 L264.8,393.1 L275.1,399.9 L286,399.6 L293.1,404.3 L302,405 L308.8,400.7 L317.4,405.7 L315.4,407.8 L320.6,410 L321.6,417.3 L328.3,416.1 L331.5,420 L331.3,414.5 L339.7,418.6 L338.9,412.6 L347.3,411.4 L347.6,403.1 L353.3,403.4 L347.8,396.7 L353.6,387.5 L348.8,384 L348.2,379.8 L354.4,373.2 L362.9,375.4 L368,389.9 L375.3,397.1 L381.7,399.7 L384,394.1 L388.7,401.9 L391.4,399.2 L394.9,403.4 L395.6,400.7 L402.2,400.9 L401.8,390.9 L409.1,393.1 L411.1,385.3 L402.4,383 L397.5,371.2 L410.5,375.5 L418,370.5 L413.4,366.4 L413.1,361.2 L420.1,355.8 L418.5,351.4 L425.8,348.9 L424.1,345.1 L427.8,344.1 L426.9,339.5 L429.5,337.1 L426.1,334.5 Z" data-name="青海省" />
    <path d="M489.6,321.3 L490.2,312.1 L495.1,307.9 L478.3,299.4 L485.1,288.2 L482.2,280.3 L475.4,282.5 L471,288.8 L468,308.7 L447,315.4 L452.6,315.8 L452,319.5 L459.5,323.2 L464.5,338.4 L462.6,344.7 L468,346 L469.2,350.2 L476.6,354.7 L477.6,346.6 L484.7,344.4 L484.7,338.5 L478.6,336.2 L476.6,330.7 L480.6,328.1 L480.1,320.8 L489.6,321.3 Z M472.1,350.2 L469.9,351.5 L472.1,350.2 Z" data-name="宁夏回族自治区" />
    <path d="M334.1,220.3 L321.8,197.3 L319,196.9 L320.2,192.1 L310.3,191.3 L293,180.1 L255.5,176 L252.5,169 L257.5,161.1 L255.7,155.9 L257.9,148.7 L248.4,132 L236.7,125 L229.7,125.9 L213.9,115.3 L215.6,112.7 L210.6,109.8 L213,108.1 L211.7,104.6 L198.4,105.3 L194,116 L182.7,118.1 L179.8,122.2 L181.4,138.4 L179.2,142.6 L170.8,146.1 L143.2,139.7 L132.4,168.4 L136.6,175.8 L125.5,172.6 L98.4,181.1 L105.7,186.2 L105.6,195.2 L111.5,212.2 L105.4,214.8 L108.6,217.3 L103.7,218.5 L102,232.7 L73.8,244.4 L68.3,250.9 L55.5,250.8 L47.6,263.1 L38.7,264.2 L37.1,257.4 L32,261.2 L26.3,259.9 L27.3,263.1 L14.6,267.7 L12.4,278.5 L7.2,280.3 L12,287 L10,289.7 L11.4,294.2 L26.6,296.4 L27,311.1 L30.6,316.7 L21.6,318.8 L21.4,321.8 L34.5,323.9 L35.1,328.1 L41,329.1 L45.1,344.2 L50.8,342.4 L59.9,349.7 L73.4,350.1 L71.7,354.9 L74.5,364 L84.3,370.6 L97.2,368.3 L106.2,350.9 L124.1,354.7 L135.3,346.1 L142.4,347 L144.7,351.8 L159.4,352.5 L172.2,345.5 L180.2,347.3 L186.5,343.8 L188.4,338.7 L205.2,333.5 L221,332.4 L239.5,339.7 L243.5,336.1 L255,340.7 L258.9,339 L257.7,331.5 L253.4,330.5 L253.3,326.2 L261.5,322.9 L261.1,320.1 L258.2,314.5 L250.3,310 L250.4,299.4 L246.9,300.9 L244.5,296.5 L277.4,287 L276.3,282.9 L280.6,278 L284.7,259 L296.6,257.3 L300.2,249.2 L307.6,242.2 L316.2,237.4 L318.6,241.1 L329.4,234.5 L331.1,229.4 L328.3,225.5 L334.1,220.3 Z" data-name="新疆维吾尔自治区" />
    <path d="M677.8,584.4 L683.9,594.2 L700.2,538.4 L694.6,533.2 L686.1,537.7 L672.9,561.8 L671.7,573 L677.8,584.4 Z M720.6,525.4 L720.6,525.4 Z M666.4,564.5 L666.4,564.5 Z M664.4,563.1 L664.4,563.1 Z M693,590.7 L694.2,592.4 L693,590.7 Z" data-name="台湾省" />
    <path d="M586.2,583.3 L583.6,588.9 L591.4,585.8 L589.4,582.5 L586.2,583.3 Z M587.8,588.5 L587.8,588.5 Z M590.3,585.5 L590.3,585.5 Z" data-name="香港特别行政区" />
    <path d="M579.3,590.4 L579.3,590.4 Z" data-name="澳门特别行政区" />
  </g>


  <!-- South China Sea Islands -->
  <g fill="#d5ddd9" stroke="#9bb0a5" stroke-width="0.6">
    <circle cx="624.3" cy="615.6" r="2.5" data-name="东沙群岛" />
    <circle cx="557.1" cy="691" r="1.5" />
    <circle cx="561.4" cy="687.4" r="1.5" />
    <circle cx="554.3" cy="685.6" r="1.5" />
    <circle cx="564.3" cy="692.8" r="1.5" />
    <circle cx="552.9" cy="694.6" r="1.5" />
    <circle cx="558.6" cy="682.1" r="1.5" />
    <circle cx="551.4" cy="689.2" r="1.5" />
    <circle cx="562.9" cy="683.8" r="1.5" />
    <circle cx="560" cy="696.4" r="1.5" />
    <text x="557.1" y="703.6" font-size="8" fill="#9bb0a5" text-anchor="middle" font-family="sans-serif">西沙群岛</text>
    <circle cx="607.1" cy="709" r="1" />
    <circle cx="611.4" cy="707.2" r="1" />
    <circle cx="604.3" cy="705.4" r="1" />
    <circle cx="608.6" cy="712.6" r="1" />
    <text x="607.1" y="721.5" font-size="7" fill="#9bb0a5" text-anchor="middle" font-family="sans-serif">中沙群岛</text>
    <circle cx="640" cy="714.4" r="2" data-name="黄岩岛" />
    <text x="640" y="726.9" font-size="7" fill="#9bb0a5" text-anchor="middle" font-family="sans-serif">黄岩岛</text>
    <circle cx="585.7" cy="789.7" r="1.2" />
    <circle cx="600" cy="798.7" r="1.2" />
    <circle cx="614.3" cy="807.7" r="1.2" />
    <circle cx="578.6" cy="804.1" r="1.2" />
    <circle cx="592.9" cy="816.7" r="1.2" />
    <circle cx="607.1" cy="811.3" r="1.2" />
    <circle cx="621.4" cy="798.7" r="1.2" />
    <circle cx="571.4" cy="825.6" r="1.2" />
    <circle cx="585.7" cy="834.6" r="1.2" />
    <circle cx="600" cy="843.6" r="1.2" />
    <circle cx="614.3" cy="825.6" r="1.2" />
    <circle cx="578.6" cy="843.6" r="1.2" />
    <circle cx="597.1" cy="852.6" r="1.2" />
    <circle cx="611.4" cy="834.6" r="1.2" />
    <circle cx="564.3" cy="807.7" r="1.2" />
    <circle cx="628.6" cy="816.7" r="1.2" />
    <circle cx="571.4" cy="852.6" r="1.2" />
    <circle cx="590" cy="865.1" r="1.2" />
    <text x="592.9" y="879.5" font-size="8" fill="#9bb0a5" text-anchor="middle" font-family="sans-serif">南沙群岛</text>
    <circle cx="560" cy="919" r="1.5" data-name="曾母暗沙" />
    <text x="560" y="933.3" font-size="7" fill="#9bb0a5" text-anchor="middle" font-family="sans-serif">曾母暗沙</text>
  </g>
  <!-- Nine-dash line (南海九段线) -->
  <g fill="none" stroke="#8aa298" stroke-width="2.5" stroke-linecap="round">
    <line x1="500" y1="610.3" x2="507.1" y2="646.2" />
    <line x1="514.3" y1="664.1" x2="535.7" y2="700" />
    <line x1="542.9" y1="717.9" x2="571.4" y2="744.9" />
    <line x1="578.6" y1="753.8" x2="607.1" y2="780.8" />
    <line x1="614.3" y1="789.7" x2="635.7" y2="798.7" />
    <line x1="642.9" y1="789.7" x2="650" y2="753.8" />
    <line x1="650" y1="735.9" x2="642.9" y2="691" />
    <line x1="635.7" y1="673.1" x2="621.4" y2="637.2" />
    <line x1="614.3" y1="628.2" x2="600" y2="601.3" />
  </g>
</svg>
